<svg width="110" height="110" viewBox="0 0 110 110" fill="none" xmlns="http://www.w3.org/2000/svg">
<path d="M80.8082 110H29.1918C13.07 110 0 96.9379 0 80.7595V29.1742C0 13.0621 13.07 0 29.1918 0H80.8082C96.93 0 110 13.0621 110 29.1742V80.7595C110 96.9379 96.93 110 80.8082 110Z" fill="#F0CFC4"/>
<path d="M22.2255 51.9832C22.2255 51.8948 22.2034 51.8063 22.1591 51.7179C21.0976 45.8168 32.4426 44.2918 36.0252 45.419C37.9492 46.0157 39.8069 47.0103 41.2665 48.2701C41.8636 48.8006 45.5789 53.3756 42.8588 53.4419C42.5271 53.4419 42.129 53.243 41.7973 53.044C39.4088 51.3201 38.0819 48.7342 35.0301 48.0049C31.7128 47.2092 27.9975 48.3364 25.6754 50.856C24.9456 51.6516 23.0216 53.906 22.2255 51.9832Z" fill="#323232"/>
<path d="M87.9734 51.9832C88.0176 51.8948 88.0398 51.8063 88.0398 51.7179C89.1013 45.8168 77.8226 44.2918 74.1736 45.419C72.316 46.0157 70.392 47.0103 68.9324 48.2701C68.3353 48.8006 64.6863 53.3756 67.3401 53.4419C67.7382 53.4419 68.0699 53.243 68.4016 53.044C70.79 51.3201 72.1169 48.7342 75.1688 48.0049C78.5524 47.2092 82.2014 48.3364 84.5235 50.856C85.3196 51.6516 87.1772 53.906 87.9734 51.9832Z" fill="#323232"/>
<path d="M9.08923 64.5811C9.08923 60.8017 12.1411 57.7517 15.9228 57.7517C19.7044 57.7517 22.7563 60.8017 22.7563 64.5811C22.7563 68.3605 19.7044 71.4105 15.9228 71.4105C12.1411 71.4105 9.08923 68.3605 9.08923 64.5811Z" fill="#F28DB3"/>
<path d="M87.2435 64.5814C87.2435 60.802 90.2954 57.752 94.0771 57.752C97.8587 57.752 100.911 60.802 100.911 64.5814C100.911 68.3607 97.8587 71.4108 94.0771 71.4108C90.2954 71.4108 87.2435 68.3607 87.2435 64.5814Z" fill="#F28DB3"/>
<path d="M50.8865 74.6593C50.0241 74.9245 49.626 75.9191 50.0241 76.781L51.2846 79.4332C51.749 80.3615 52.2134 81.3561 53.0096 82.0854C53.7394 82.7485 54.9336 83.1463 55.9288 82.6822C56.7249 82.3506 57.1893 81.4224 57.322 80.5604C57.3662 80.2952 57.3884 80.03 57.3884 79.7648C57.322 79.1017 58.0518 78.6376 58.7153 78.9691C59.3124 79.3006 60.0422 79.5658 60.7719 79.4995C61.3691 79.4332 61.9662 79.168 62.3642 78.7039C63.2931 77.5104 62.4969 76.118 61.5681 75.1234C60.5729 74.1288 59.445 73.2668 58.1181 72.7364C57.6537 72.4712 57.123 72.4712 56.6586 72.6701L50.8865 74.6593Z" fill="#F28DB3"/>
</svg>
