<svg width="110" height="110" viewBox="0 0 110 110" fill="none" xmlns="http://www.w3.org/2000/svg">
<path d="M80.8082 110H29.1918C13.07 110 0 96.93 0 80.8082V29.1918C0 13.07 13.07 0 29.1918 0H80.8082C96.93 0 110 13.07 110 29.1918V80.8082C110 96.93 96.93 110 80.8082 110Z" fill="#F8D458"/>
<path d="M74.3064 60.0422C76.6948 60.0422 78.3535 62.2316 77.8227 64.5537C75.5006 73.842 66.146 80.8082 55.0001 80.8082C43.8541 80.8082 34.4994 73.842 32.1774 64.5537C31.6466 62.2316 33.3716 60.0422 35.6937 60.0422H74.3064Z" fill="#323232"/>
<path d="M37.3523 39.8732C38.5465 41.9299 39.1436 44.8491 37.3523 46.375C35.8927 47.6356 33.7033 47.3039 31.7793 47.0385C26.8698 46.5077 21.8939 47.5029 17.5814 49.8913C17.3161 50.024 17.0507 50.223 16.719 50.2894C16.0555 50.3557 15.3921 50.024 15.0603 49.4269C14.5296 48.4317 15.0603 47.0385 15.9892 46.3087C16.918 45.5789 18.1122 45.3135 19.3064 45.1145C24.2159 44.1193 29.3245 43.1905 34.1677 44.3847C34.3667 44.451 34.6321 44.5174 34.8311 44.451C35.6273 44.252 35.4282 43.0578 34.9638 42.3943C33.3715 40.1386 30.7178 38.679 28.064 37.8165C25.8746 37.0867 19.7045 36.954 18.3112 35.03C16.5199 32.4426 21.7612 31.0493 23.5525 31.182C28.6611 31.4474 34.8311 35.5608 37.3523 39.8732Z" fill="#323232"/>
<path d="M72.6478 39.8732C71.4536 41.9299 70.8565 44.8491 72.6478 46.375C74.1074 47.6356 76.3631 47.3039 78.2871 47.0385C83.1303 46.5077 88.1725 47.5029 92.4186 49.8913C92.684 50.024 93.0157 50.223 93.2811 50.2894C93.9445 50.3557 94.608 50.024 94.9397 49.4269C95.5368 48.4317 95.006 47.0385 94.0772 46.3087C93.082 45.5789 91.8878 45.3135 90.76 45.1145C85.8504 44.1193 80.7419 43.1905 75.8987 44.3847C75.6333 44.451 75.3679 44.5174 75.1689 44.451C74.3727 44.252 74.5718 43.0578 75.0362 42.3943C76.6948 40.1386 79.2823 38.679 81.9361 37.8165C84.1918 37.0867 90.3619 36.954 91.6888 35.03C93.4801 32.4426 88.2388 31.0493 86.4475 31.182C81.4053 31.4474 75.1689 35.5608 72.6478 39.8732Z" fill="#323232"/>
</svg>
