<svg width="110" height="110" viewBox="0 0 110 110" fill="none" xmlns="http://www.w3.org/2000/svg">
<path d="M81.1399 110H28.8601C12.9373 110 0 97.0627 0 81.1399V28.8601C0 12.8709 12.9373 0 28.8601 0H81.1399C97.129 0 110 12.8709 110 28.8601V81.1399C110 97.0627 97.129 110 81.1399 110Z" fill="url(#paint0_linear_22_303)"/>
<path d="M13.9078 42.4695C13.86 42.3739 13.8361 42.2783 13.8361 42.1827C12.689 35.8024 24.8763 34.1535 28.8192 35.3722C30.8265 36.0174 32.8338 37.0928 34.4827 38.4549C35.0562 39.0284 39.0708 43.975 36.2032 44.0467C35.7731 44.0467 35.4147 43.8316 35.0562 43.6165C32.4037 41.7526 31.0416 38.9567 27.7439 38.1681C24.0877 37.3078 20.1448 38.5266 17.5639 41.2508C16.7754 42.111 14.768 44.5485 13.9078 42.4695Z" fill="#153C35"/>
<path d="M94.5587 42.4695C94.5587 42.3739 94.5826 42.2783 94.6304 42.1827C95.7774 35.8024 83.5185 34.1535 79.6473 35.3722C77.6399 36.0174 75.5609 37.0928 73.9838 38.4549C73.3385 39.0284 69.3956 43.975 72.2632 44.0467C72.6217 44.0467 73.0518 43.8316 73.4102 43.6165C75.9911 41.7526 77.4249 38.9567 80.7226 38.1681C84.3071 37.3078 88.3217 38.5266 90.8308 41.2508C91.6194 42.111 93.6984 44.5485 94.5587 42.4695Z" fill="#153C35"/>
<path d="M31.1132 64.765C45.8096 69.855 62.8717 69.5682 77.5681 64.4782C82.8731 62.6143 87.9631 60.0335 92.4078 56.5924C93.7699 55.5887 96.3507 53.2947 97.9996 55.3737C98.9316 56.5924 98.143 58.5997 97.4978 59.7467C95.9206 62.5426 93.1964 64.5499 90.6156 66.4139C87.3179 68.8513 83.6617 70.7869 79.8621 72.3641C73.4101 75.0166 66.4562 76.3787 59.5023 76.8089C56.8737 77 54.245 77.0478 51.6164 76.9522C51.5686 76.9522 51.4969 76.9522 51.4013 76.9522C47.6735 76.8567 43.9695 76.4743 40.2894 75.8052C33.2639 74.5865 26.4533 72.2207 20.2163 68.7079C19.5472 68.3256 18.8782 67.9193 18.209 67.4892C15.9867 66.1271 13.836 64.765 12.5456 62.3992C12.1154 61.539 11.8287 60.5353 12.1154 59.6033C12.6173 58.0262 14.3378 57.4527 15.7716 57.7394C18.1374 58.2412 20.073 59.6033 22.152 60.7504C24.3505 61.993 26.5967 63.0683 28.8908 63.9764C29.6555 64.2632 30.3963 64.526 31.1132 64.765Z" fill="#153C35"/>
<defs>
<linearGradient id="paint0_linear_22_303" x1="55" y1="0" x2="55" y2="110" gradientUnits="userSpaceOnUse">
<stop stop-color="#F7C186"/>
<stop offset="1" stop-color="#EECBA5"/>
</linearGradient>
</defs>
</svg>
