<svg width="10" height="10" viewBox="0 0 10 10" fill="none" xmlns="http://www.w3.org/2000/svg">
<path d="M6.04175 1.875C6.04175 2.22018 5.76191 2.5 5.41675 2.5C5.07154 2.5 4.79175 2.22018 4.79175 1.875C4.79175 1.52982 5.07154 1.25 5.41675 1.25C5.76191 1.25 6.04175 1.52982 6.04175 1.875Z" stroke="#4855DF" stroke-width="0.8"/>
<path d="M7.91667 3.70444L5.82404 3.45477M5.82404 3.45477L5.09296 3.36754C4.7585 3.32764 4.59129 3.30769 4.46442 3.39342C4.3375 3.47916 4.29125 3.64333 4.19875 3.97169L3.92029 4.96001C3.75966 5.53018 3.67935 5.81522 3.82998 5.9878C3.98062 6.16039 4.26938 6.11418 4.84692 6.02168L5.05842 5.9878M5.82404 3.45477L5.05842 5.9878M7.91667 8.75001L7.72658 7.30422C7.62096 6.50089 7.56817 6.09922 7.28813 5.88743C7.00808 5.67564 6.61342 5.7388 5.82404 5.86522L5.05842 5.9878" stroke="#4855DF" stroke-width="0.8" stroke-linecap="round" stroke-linejoin="round"/>
<path d="M4.16671 7.08334L3.93638 7.54401C3.81542 7.78593 3.61927 7.98205 3.37736 8.10301L2.08337 8.75001" stroke="#4855DF" stroke-width="0.8" stroke-linecap="round" stroke-linejoin="round"/>
</svg>
