<svg width="22" height="22" viewBox="0 0 22 22" fill="none" xmlns="http://www.w3.org/2000/svg">
<path d="M20.1667 11C20.1667 16.0625 16.0626 20.1666 11 20.1666C5.9374 20.1666 1.83334 16.0625 1.83334 11M7.79168 2.41046C8.79024 2.03732 9.87132 1.83331 11 1.83331C12.1287 1.83331 13.2098 2.03732 14.2083 2.41046" stroke="#66667E" stroke-width="1.5" stroke-linecap="round" stroke-linejoin="round"/>
<path d="M6.89176 4.98046L7.3757 5.95635C7.44169 6.0922 7.61767 6.22251 7.76617 6.24746L8.64331 6.3944C9.20424 6.48866 9.33624 6.89898 8.93204 7.30375L8.25011 7.99131C8.13462 8.10775 8.07138 8.33232 8.10712 8.49312L8.30235 9.34421C8.45633 10.018 8.10163 10.2786 7.51044 9.92647L6.68828 9.43578C6.53979 9.34705 6.29507 9.34705 6.14384 9.43578L5.32168 9.92647C4.73325 10.2786 4.37578 10.0152 4.52977 9.34421L4.725 8.49312C4.76075 8.33232 4.6975 8.10775 4.58201 7.99131L3.90009 7.30375C3.49863 6.89898 3.62786 6.48866 4.18881 6.3944L5.06596 6.24746C5.21169 6.22251 5.38767 6.0922 5.45366 5.95635L5.93762 4.98046C6.20158 4.45093 6.63053 4.45093 6.89176 4.98046Z" stroke="#66667E" stroke-width="1.5" stroke-linecap="round" stroke-linejoin="round"/>
<path d="M16.0584 4.98046L16.5423 5.95635C16.6083 6.0922 16.7843 6.22251 16.9328 6.24746L17.81 6.3944C18.3709 6.48866 18.5029 6.89898 18.0987 7.30375L17.4168 7.99131C17.3013 8.10775 17.238 8.33232 17.2738 8.49312L17.469 9.34421C17.623 10.018 17.2683 10.2786 16.6771 9.92647L15.8549 9.43578C15.7064 9.34705 15.4618 9.34705 15.3105 9.43578L14.4884 9.92647C13.9 10.2786 13.5425 10.0152 13.6965 9.34421L13.8917 8.49312C13.9274 8.33232 13.8642 8.10775 13.7487 7.99131L13.0668 7.30375C12.6653 6.89898 12.7946 6.48866 13.3555 6.3944L14.2326 6.24746C14.3784 6.22251 14.5544 6.0922 14.6204 5.95635L15.1043 4.98046C15.3683 4.45093 15.7972 4.45093 16.0584 4.98046Z" stroke="#66667E" stroke-width="1.5" stroke-linecap="round" stroke-linejoin="round"/>
<path d="M7.33334 13.75C8.16945 14.8632 9.50062 15.5833 11 15.5833C12.4994 15.5833 13.8306 14.8632 14.6667 13.75" stroke="#66667E" stroke-width="1.5" stroke-linecap="round" stroke-linejoin="round"/>
</svg>
