<svg width="110" height="110" viewBox="0 0 110 110" fill="none" xmlns="http://www.w3.org/2000/svg">
<path d="M81.1399 110H28.8601C12.9373 110 0 97.0627 0 81.1399V28.8601C0 12.8709 12.9373 0 28.8601 0H81.1399C97.129 0 110 12.8709 110 28.8601V81.1399C110 97.0627 97.129 110 81.1399 110Z" fill="url(#paint0_linear_22_288)"/>
<path d="M34.9951 41.0274C34.9951 45.6779 32.7046 49.4261 29.9975 49.4261C27.2211 49.4261 25 45.6779 25 41.0274C25 36.3769 27.2211 32.5593 29.9975 32.5593C32.7046 32.5593 34.9951 36.3769 34.9951 41.0274Z" fill="#153C35"/>
<path d="M84.9018 41.0274C84.9018 45.6779 82.6807 49.4261 79.9043 49.4261C77.1279 49.4261 74.9067 45.6779 74.9067 41.0274C74.9067 36.3769 77.1279 32.5593 79.9043 32.5593C82.6807 32.5593 84.9018 36.3769 84.9018 41.0274Z" fill="#153C35"/>
<path d="M72.0606 60.1152C76.6417 60.1152 79.557 64.8351 77.5441 68.9304C73.7265 76.5655 65.1196 81.8407 55.1939 81.8407C45.1988 81.8407 36.5919 76.5655 32.8437 68.9304C30.8308 64.8351 33.7461 60.1152 38.2578 60.1152H72.0606Z" fill="#153C35"/>
<defs>
<linearGradient id="paint0_linear_22_288" x1="55" y1="0" x2="55" y2="110" gradientUnits="userSpaceOnUse">
<stop stop-color="#F7C186"/>
<stop offset="1" stop-color="#EECBA5"/>
</linearGradient>
</defs>
</svg>
