<svg width="22" height="22" viewBox="0 0 22 22" fill="none" xmlns="http://www.w3.org/2000/svg">
<path d="M6.02944 14.1915C4.73257 14.9637 1.33225 16.5404 3.40327 18.5136C4.41495 19.4773 5.5417 20.1667 6.9583 20.1667H15.0417C16.4583 20.1667 17.5851 19.4773 18.5967 18.5136C20.6677 16.5404 17.2674 14.9637 15.9705 14.1915C12.9294 12.3806 9.07059 12.3806 6.02944 14.1915Z" stroke="#66667E" stroke-width="1.5" stroke-linecap="round" stroke-linejoin="round"/>
<path d="M15.125 5.95831C15.125 8.23649 13.2782 10.0833 11 10.0833C8.72183 10.0833 6.875 8.23649 6.875 5.95831C6.875 3.68014 8.72183 1.83331 11 1.83331C13.2782 1.83331 15.125 3.68014 15.125 5.95831Z" stroke="#66667E" stroke-width="1.5"/>
</svg>
